<?xml version="1.0" standalone="no"?><!DOCTYPE svg PUBLIC "-//W3C//DTD SVG 1.1//EN" "http://www.w3.org/Graphics/SVG/1.1/DTD/svg11.dtd"><svg t="1623247255672" class="icon" viewBox="0 0 1024 1024" version="1.1" xmlns="http://www.w3.org/2000/svg" p-id="3981" xmlns:xlink="http://www.w3.org/1999/xlink" width="256" height="256"><defs><style type="text/css"></style></defs><path d="M116.364 837.818h279.272v93.091H23.273V93.091h372.363v93.09H116.364v651.637z m512 0h93.09v93.091h-93.09v-93.09z m139.636 0h93.09v93.091H768v-93.09z m139.636 93.091v-93.09h93.091v93.09h-93.09z m0-325.818V512h93.091v93.09h-93.09z m0 139.636v-93.09h93.091v93.09h-93.09z m0-279.272v-93.091h93.091v93.09h-93.09z m0-139.637v-93.09h93.091v93.09h-93.09z m0-139.636V93.09h93.091v93.09h-93.09z m-46.545 0H768V93.09h93.09v93.09z m-139.636 0h-93.091V93.09h93.09v93.09zM488.727 0h93.091v1024h-93.09V0z" p-id="3982"></path></svg>