<?xml version="1.0" standalone="no"?><!DOCTYPE svg PUBLIC "-//W3C//DTD SVG 1.1//EN" "http://www.w3.org/Graphics/SVG/1.1/DTD/svg11.dtd"><svg t="1637726014548" class="icon" viewBox="0 0 1024 1024" version="1.1" xmlns="http://www.w3.org/2000/svg" p-id="13816" xmlns:xlink="http://www.w3.org/1999/xlink" width="200" height="200"><defs><style type="text/css"></style></defs><path d="M318.5664 38.4a135.168 135.168 0 0 1 129.536 96.6656h329.8304c118.5792 0 207.6672 88.3712 207.6672 207.7184 0 115.6608-83.7632 202.24-196.9664 207.36l-10.7008 0.256H246.0672c-76.288 0-130.8672 54.1184-130.8672 130.816 0 73.728 50.2784 126.464 121.8048 130.6112l9.0624 0.256h329.7792a135.168 135.168 0 0 1 259.1744 0H947.2a38.4 38.4 0 0 1 5.2224 76.4416l-5.2224 0.3584-112.2304 0.0512a135.168 135.168 0 0 1-259.072 0H246.016C127.488 888.8832 38.4 800.512 38.4 681.216c0-115.712 83.7632-202.24 196.9664-207.4112l10.7008-0.256h531.8656c76.288 0 130.8672-54.1184 130.8672-130.8672 0-73.6256-50.2784-126.464-121.8048-130.56l-9.0624-0.256H448.1536a135.168 135.168 0 0 1-259.1744 0H76.8a38.4 38.4 0 0 1-5.2224-76.4416l5.2224-0.3584 112.2304-0.0512A135.168 135.168 0 0 1 318.5664 38.4z m386.8672 753.7664a58.3168 58.3168 0 1 0 0 116.6336 58.3168 58.3168 0 0 0 0-116.6336zM318.5664 115.2a58.3168 58.3168 0 1 0 0 116.6336 58.3168 58.3168 0 0 0 0-116.6336z" p-id="13817"></path></svg>