<?xml version="1.0" standalone="no"?><!DOCTYPE svg PUBLIC "-//W3C//DTD SVG 1.1//EN" "http://www.w3.org/Graphics/SVG/1.1/DTD/svg11.dtd"><svg t="1637725725810" class="icon" viewBox="0 0 1024 1024" version="1.1" xmlns="http://www.w3.org/2000/svg" p-id="5343" xmlns:xlink="http://www.w3.org/1999/xlink" width="200" height="200"><defs><style type="text/css"></style></defs><path d="M868.975104 57.584083C779.562981 19.194694 651.831377 0 511.326613 0S243.090245 19.194694 153.678122 57.584083C51.492839 102.375033 0.400197 153.557556 0.400197 211.151626v595.055503c0 57.584083 51.092642 115.168167 153.277925 153.557556 89.412123 44.790949 217.143727 63.985644 357.648491 63.985644s268.236368-19.194694 357.648491-57.584083c95.803696-38.389389 153.277925-95.973472 153.277924-153.567543V211.151626c0-57.59407-51.092642-108.776593-153.277924-153.567543z m-57.484216 262.33415c-83.020549 31.997815-197.978993 44.790949-300.164275 44.790949-108.576857 0-217.143727-12.793134-300.174263-44.790949C115.358641 294.331965 70.657573 255.942576 70.657573 211.151626c0-38.389389 51.092642-76.778778 140.504764-108.776593 83.020549-25.596255 191.597406-38.389389 300.174263-38.389389 102.185283 0 217.143727 19.194694 300.164275 44.790949 89.42211 31.997815 140.504764 70.387204 140.504765 108.776594-0.009987 38.389389-44.711055 76.778778-140.514752 102.365046z m6.391574 185.555371c-83.020549 25.596255-197.978993 44.790949-306.555849 44.79095-108.576857 0-217.143727-19.194694-306.555849-44.79095C115.358641 473.485776 64.265999 435.096387 64.265999 396.706998V326.319793c63.865802 25.596255 108.56687 57.584083 178.824246 70.387205 83.030536 19.194694 172.442659 31.987829 268.236368 31.987828 95.793709 0 185.205832-12.793134 268.236368-31.987828 70.257376-12.803121 114.958443-44.790949 178.824245-70.387205v76.778778c0 31.997815-51.092642 70.387204-140.504764 102.375033z m0 204.750066c-83.020549 25.596255-197.978993 44.790949-306.555849 44.790949-108.576857 0-217.143727-19.194694-306.555849-44.790949C115.358641 684.627415 64.265999 646.248013 64.265999 601.457063v-95.973472c63.865802 31.987829 108.56687 57.584083 178.824246 76.778778 83.030536 19.194694 172.442659 31.987829 268.236368 31.987828 95.793709 0 185.205832-12.793134 268.236368-31.987828 70.257376-19.194694 114.958443-44.790949 178.824245-76.778778v95.973472c0 44.790949-51.092642 83.170352-140.504764 108.766607zM511.326613 959.764685c-108.576857 0-217.143727-19.194694-306.555849-44.790949C115.358641 889.377481 64.265999 850.988092 64.265999 812.598703v-95.973473c63.865802 31.987829 108.56687 57.584083 178.824246 76.778778 76.638962 19.194694 172.442659 31.997815 261.854781 31.997816 95.803696 0 185.215819-12.803121 268.236368-31.997816 76.638962-19.194694 121.350017-44.790949 185.215819-76.778778v95.973473c0 38.389389-51.092642 76.778778-140.504764 108.776593-83.030536 25.596255-204.380553 38.389389-306.565836 38.389389z m0 0" p-id="5344"></path></svg>