<?xml version="1.0" standalone="no"?><!DOCTYPE svg PUBLIC "-//W3C//DTD SVG 1.1//EN" "http://www.w3.org/Graphics/SVG/1.1/DTD/svg11.dtd"><svg t="1637313056822" class="icon" viewBox="0 0 1024 1024" version="1.1" xmlns="http://www.w3.org/2000/svg" p-id="15419" xmlns:xlink="http://www.w3.org/1999/xlink" width="200" height="200"><defs><style type="text/css"></style></defs><path d="M64 64m24 0l0 0q24 0 24 24l0 848q0 24-24 24l0 0q-24 0-24-24l0-848q0-24 24-24Z" fill="#B8B8B8" p-id="15420"></path><path d="M848 112a64 64 0 0 1 0 128H304a64 64 0 0 1 0-128h544m0-48H304a112 112 0 0 0-112 112 112 112 0 0 0 112 112h544a112 112 0 0 0 112-112 112 112 0 0 0-112-112zM848 784a64 64 0 0 1 0 128H304a64 64 0 0 1 0-128h544m0-48H304a112 112 0 0 0-112 112 112 112 0 0 0 112 112h544a112 112 0 0 0 112-112 112 112 0 0 0-112-112zM848 448a64 64 0 0 1 0 128H304a64 64 0 0 1 0-128h544m0-48H304a112 112 0 0 0-112 112 112 112 0 0 0 112 112h544a112 112 0 0 0 112-112 112 112 0 0 0-112-112z" fill="#B8B8B8" p-id="15421"></path><path d="M304 160m16 0l496 0q16 0 16 16l0 0q0 16-16 16l-496 0q-16 0-16-16l0 0q0-16 16-16Z" fill="#B8B8B8" p-id="15422"></path><path d="M304 496m16 0l496 0q16 0 16 16l0 0q0 16-16 16l-496 0q-16 0-16-16l0 0q0-16 16-16Z" fill="#B8B8B8" p-id="15423"></path><path d="M304 832m16 0l496 0q16 0 16 16l0 0q0 16-16 16l-496 0q-16 0-16-16l0 0q0-16 16-16Z" fill="#B8B8B8" p-id="15424"></path></svg>