<?xml version="1.0" standalone="no"?><!DOCTYPE svg PUBLIC "-//W3C//DTD SVG 1.1//EN" "http://www.w3.org/Graphics/SVG/1.1/DTD/svg11.dtd"><svg t="1628479557250" class="icon" viewBox="0 0 1024 1024" version="1.1" xmlns="http://www.w3.org/2000/svg" p-id="6933" xmlns:xlink="http://www.w3.org/1999/xlink" width="256" height="256"><defs><style type="text/css"></style></defs><path d="M106.666667 981.333333c-6.4 0-21.333333-6.4-21.333334-21.333333s10.666667-21.333333 21.333334-21.333333h106.666666V512c0-160 138.666667-298.666667 298.666667-298.666667s298.666667 138.666667 298.666667 298.666667v426.666667h106.666666c10.666667 0 21.333333 6.4 21.333334 21.333333s-14.933333 21.333333-21.333334 21.333333H106.666667z m320-469.333333c12.8 0 21.333333 10.666667 21.333333 21.333333v405.333334h320V512c0-132.266667-119.466667-256-256-256s-256 115.2-256 256v426.666667h149.333333V533.333333c0-10.666667 8.533333-21.333333 21.333334-21.333333z m469.333333 21.333333c-6.4 0-10.666667-2.133333-14.933333-6.4-4.266667-4.266667-6.4-10.666667-6.4-17.066666 2.133333-10.666667 10.666667-19.2 21.333333-19.2h64c6.4 0 10.666667 2.133333 14.933333 6.4 4.266667 4.266667 6.4 10.666667 6.4 17.066666-2.133333 10.666667-10.666667 19.2-21.333333 19.2h-64z m-846.933333-6.4c-4.266667-4.266667-6.4-10.666667-6.4-17.066666 2.133333-10.666667 10.666667-19.2 21.333333-19.2h61.866667c10.666667 0 21.333333 8.533333 21.333333 19.2 0 6.4-2.133333 10.666667-6.4 17.066666-4.266667 4.266667-8.533333 6.4-14.933333 6.4h-64c-4.266667 0-8.533333-2.133333-12.8-6.4zM136.533333 189.866667c0-6.4 2.133333-10.666667 8.533334-14.933334 8.533333-6.4 21.333333-6.4 29.866666 2.133334l44.8 44.8c8.533333 8.533333 8.533333 21.333333 2.133334 29.866666-4.266667 4.266667-8.533333 6.4-14.933334 8.533334-6.4 0-10.666667-2.133333-14.933333-6.4L147.2 209.066667c-8.533333-8.533333-10.666667-12.8-10.666667-19.2z m750.933334 0c0-6.4-2.133333-10.666667-8.533334-14.933334-8.533333-6.4-21.333333-6.4-29.866666 2.133334l-44.8 44.8c-8.533333 8.533333-8.533333 21.333333-2.133334 29.866666 4.266667 4.266667 8.533333 6.4 14.933334 8.533334 6.4 0 10.666667-2.133333 14.933333-6.4l44.8-44.8c8.533333-8.533333 10.666667-12.8 10.666667-19.2zM512 149.333333c-10.666667 0-21.333333-8.533333-21.333333-21.333333V64c0-10.666667 10.666667-21.333333 21.333333-21.333333h2.133333c10.666667 2.133333 19.2 10.666667 19.2 21.333333v61.866667c0 12.8-8.533333 21.333333-21.333333 23.466666 2.133333 0 0 0 0 0z" fill="#FF8035" p-id="6934"></path></svg>