<?xml version="1.0" standalone="no"?><!DOCTYPE svg PUBLIC "-//W3C//DTD SVG 1.1//EN" "http://www.w3.org/Graphics/SVG/1.1/DTD/svg11.dtd"><svg t="1628487852716" class="icon" viewBox="0 0 1024 1024" version="1.1" xmlns="http://www.w3.org/2000/svg" p-id="7852" width="512" height="512" xmlns:xlink="http://www.w3.org/1999/xlink"><defs><style type="text/css"></style></defs><path d="M368.4352 579.720533c2.048 8.942933 5.12 17.7152 7.509333 26.624 2.218667 8.055467 4.096 16.213333 6.314667 24.337067 2.389333 8.874667 5.12 17.646933 7.5776 26.555733 2.116267 7.850667 4.096 15.7696 6.280533 23.6544 3.413333 12.458667 7.0656 24.849067 10.478934 37.376 2.218667 7.850667 4.096 15.701333 6.178133 23.552 2.56 9.147733 5.256533 18.158933 7.748267 27.272534 2.218667 8.123733 4.027733 16.2816 6.280533 24.405333l7.509333 26.487467c2.2528 8.123733 4.266667 16.247467 6.382934 24.405333 2.901333 11.264 5.7344 22.562133 8.874666 33.792 0.341333 1.365333 2.491733 2.184533 4.744534 4.061867 1.194667-11.502933 2.013867-21.572267 3.3792-31.470934 2.321067-17.271467 5.12-34.4064 7.68-51.6096 1.2288-8.635733 2.048-17.3056 3.072-25.941333l5.290666-39.901867c1.024-7.68 2.048-15.4624 2.901334-23.210666 1.160533-11.605333 2.048-23.210667 3.2768-34.816 0.682667-6.178133 1.979733-12.322133 2.594133-18.5344 1.297067-12.765867-3.959467-24.234667-7.3728-36.113067l-2.4576-8.465067a35.157333 35.157333 0 0 1-0.887467-4.266666c-0.136533-1.365333 2.56-4.4032 3.925334-4.4032 24.849067-0.273067 49.664-0.170667 74.478933-0.170667 3.584 0 4.881067 0.8192 3.584 4.8128-2.833067 8.3968-4.983467 16.896-7.338667 25.361067-0.9216 3.345067-2.116267 6.724267-2.6624 10.24-1.979733 11.810133-0.273067 23.415467 2.1504 35.157333 1.774933 8.2944 2.3552 16.7936 3.140267 25.258667 1.1264 12.288 1.774933 24.610133 3.2768 36.864 2.321067 17.92 5.188267 35.7376 7.645867 53.589333 1.194667 8.021333 2.184533 15.9744 2.935466 23.9616 1.194667 12.049067 2.116267 24.1664 3.2768 36.181333 0.682667 7.338667 1.706667 14.677333 2.8672 21.947734 0.170667 1.399467 2.048 2.525867 4.369067 5.12 3.447467-13.312 6.212267-24.746667 9.4208-36.078934 3.1744-11.639467 6.826667-23.1424 10.171733-34.7136 2.286933-8.0896 4.232533-16.2816 6.382934-24.405333 2.491733-8.840533 5.12-17.6128 7.509333-26.453333 2.2528-8.0896 4.096-16.247467 6.417067-24.302934 2.3552-8.704 4.949333-17.339733 7.3728-26.0096 2.1504-7.953067 4.266667-16.145067 6.519466-24.1664 2.491733-9.079467 5.154133-18.090667 7.645867-27.2384 2.218667-8.328533 4.096-16.725333 6.3488-24.951466 2.321067-8.704 5.051733-17.271467 7.509333-25.873067 2.184533-7.850667 4.096-15.803733 6.280534-23.688533 0.9216-3.618133 1.024-8.430933 3.3792-10.410667 2.798933-2.3552 8.3968-3.857067 11.605333-2.730667 15.018667 5.358933 29.5936 11.8784 44.373333 17.646934 15.325867 5.973333 30.8224 11.502933 46.148267 17.3056 12.1856 4.642133 24.405333 9.352533 36.522667 14.165333a201.728 201.728 0 0 1 44.168533 23.517867c12.288 8.942933 21.947733 19.968 27.4432 33.792 2.491733 6.075733 2.389333 13.1072 3.072 19.831466 1.262933 12.253867 1.911467 24.576 3.1744 36.864 1.536 14.472533 3.4816 28.8768 5.154133 43.3152l0.2048 1.979734c1.058133 14.6432 2.116267 29.115733 3.2768 43.690666 0.785067 10.069333 1.604267 20.138667 2.935467 30.1056 2.116267 16.0768-15.291733 32.836267-32.494933 32.699734-94.378667-0.853333-188.757333-0.6144-283.2384-0.6144-132.539733 0-265.1136 0.1024-397.755734 0.4096-11.776 0-21.947733-2.525867-28.501333-11.912534-7.8848-11.332267-8.9088-24.405333-5.802667-37.614933 0.341333-1.3312 1.024-2.594133 1.024-3.857067 1.194667-14.336 2.013867-28.706133 3.413334-43.008 1.262933-12.219733 3.2768-24.3712 4.881066-36.522666l0.238934-2.013867c1.058133-14.301867 0.887467-28.8768 3.549866-42.9056 2.594133-13.653333 0.375467-28.16 9.728-40.891733 9.352533-12.526933 20.445867-22.801067 33.450667-30.993067 19.797333-12.561067 42.325333-19.456 64.170667-27.716267 17.2032-6.587733 34.133333-13.824 51.336533-20.650666 14.404267-5.7344 28.945067-11.400533 43.52-16.725334 6.7584-2.525867 12.9024 2.116267 14.4384 9.0112z m142.506667-442.709333c11.0592-0.1024 22.289067 1.706667 33.211733 3.925333 10.24 2.048 20.48 4.9152 30.1056 8.874667 26.5216 10.786133 49.834667 28.125867 67.7888 50.414933 13.482667 16.520533 24.098133 34.4064 31.778133 53.76 4.437333 11.127467 6.656 23.210667 9.147734 34.952534 2.1504 10.6496 4.676267 21.6064 4.608 32.392533-0.477867 14.9504-1.911467 29.832533-4.334934 44.612267-1.160533 8.738133-3.6864 17.2032-5.700266 25.8048-3.822933 16.384-11.093333 31.402667-18.875734 46.2848a206.336 206.336 0 0 1-53.623466 64.989866c-14.472533 11.946667-31.061333 21.026133-48.878934 26.8288-16.008533 5.154133-32.256 8.738133-48.981333 7.645867A148.992 148.992 0 0 1 432.469333 512c-19.899733-13.482667-37.307733-29.627733-50.210133-49.698133-9.147733-13.858133-17.408-28.330667-24.644267-43.246934-5.9392-12.765867-9.898667-26.555733-13.824-40.106666-2.048-6.826667-2.389333-14.097067-3.2768-21.128534-1.2288-9.864533-2.321067-19.592533-3.857066-33.211733 2.628267-14.336 5.666133-32.0512 9.216-49.732267 4.164267-20.957867 13.653333-39.867733 25.224533-57.787733a175.9232 175.9232 0 0 1 67.549867-61.6448c12.663467-6.587733 26.0096-11.946667 40.3456-14.097067 10.6496-1.536 21.265067-4.266667 31.914666-4.369066zM512 238.933333a17.066667 17.066667 0 0 0-17.066667 17.066667v68.266667h-68.266666a17.066667 17.066667 0 1 0 0 34.133333h68.232533l0.034133 68.266667a17.066667 17.066667 0 1 0 34.133334 0l-0.034134-68.266667H597.333333a17.066667 17.066667 0 1 0 0-34.133333h-68.266666v-68.266667A17.066667 17.066667 0 0 0 512 238.933333z" fill="#85C2FF" p-id="7853"></path></svg>